<?xml version="1.0" encoding="utf-8"?>
<!-- Generator: Adobe Illustrator 16.0.1, SVG Export Plug-In . SVG Version: 6.00 Build 0)  -->
<!DOCTYPE svg PUBLIC "-//W3C//DTD SVG 1.1//EN" "http://www.w3.org/Graphics/SVG/1.1/DTD/svg11.dtd">
<svg version="1.1" id="Layer_1" xmlns="http://www.w3.org/2000/svg" xmlns:xlink="http://www.w3.org/1999/xlink" x="0px" y="0px"
	 width="196px" height="44.547px" viewBox="0 0 196 44.547" enable-background="new 0 0 196 44.547" xml:space="preserve">
<path fill="#FFFFFF" d="M126.668,42.227c-0.147,0.054-0.625,0.181-1.037,0.181c-0.549,0-0.855-0.254-0.855-0.72
	c0-0.137,0.03-0.296,0.084-0.476l0.941-2.982c0.095-0.328-0.105-0.444-0.782-0.487v-0.232l1.914-0.062l-1.163,3.711
	c-0.064,0.211-0.106,0.37-0.106,0.498c0,0.306,0.254,0.412,1.005,0.369V42.227z M127.049,34.866c0.254,0,0.454,0.16,0.454,0.487
	c0,0.423-0.306,0.867-0.697,0.867c-0.243,0-0.455-0.159-0.455-0.497C126.351,35.3,126.657,34.866,127.049,34.866"/>
<path fill="#FFFFFF" d="M128.667,38.252c0.085-0.339-0.01-0.477-0.666-0.52v-0.222l1.713-0.063l-0.296,0.899l0.032,0.032
	c0.635-0.572,1.376-0.963,1.957-0.963c0.623,0,0.96,0.339,0.96,0.942c0,0.201-0.041,0.434-0.127,0.698l-0.707,2.146
	c-0.074,0.211-0.104,0.38-0.104,0.508c0,0.295,0.243,0.37,0.897,0.348v0.19c-0.105,0.042-0.496,0.159-0.908,0.159
	c-0.54,0-0.847-0.18-0.847-0.623c0-0.118,0.032-0.308,0.095-0.498l0.698-2.115c0.074-0.21,0.106-0.402,0.106-0.571
	c0-0.36-0.19-0.591-0.656-0.591c-0.455,0-0.931,0.274-1.48,0.719l-0.878,3.595h-0.983l0.55-1.713L128.667,38.252z"/>
<path fill="#FFFFFF" d="M132.95,41.433c0-0.358,0.211-0.633,0.561-0.633c0.297,0,0.498,0.201,0.498,0.507
	c0,0.202-0.096,0.381-0.286,0.529c0.073,0.169,0.56,0.316,0.889,0.316c0.645,0,1.047-0.391,1.047-0.919
	c0-0.477-0.338-0.719-0.952-1.068c-0.592-0.329-1.025-0.667-1.025-1.258c0-0.815,0.602-1.522,1.734-1.522
	c0.825,0,1.417,0.444,1.417,0.962c0,0.329-0.19,0.592-0.539,0.592c-0.275,0-0.508-0.223-0.508-0.497
	c0-0.096,0.032-0.339,0.286-0.518c-0.085-0.17-0.444-0.276-0.72-0.276c-0.582,0-0.92,0.371-0.92,0.846
	c0,0.456,0.307,0.699,0.898,1.047c0.635,0.36,1.048,0.699,1.048,1.312c0,0.741-0.561,1.566-1.841,1.566
	C133.681,42.418,132.95,42.015,132.95,41.433"/>
<path fill="#FFFFFF" d="M137.743,43.814c-0.063,0.223,0.201,0.286,0.952,0.317v0.221h-2.762v-0.221
	c0.551-0.021,0.804-0.116,0.857-0.296l0.434-1.333l1.121-4.262c0.095-0.338-0.011-0.464-0.666-0.507v-0.223l1.725-0.062
	l-0.213,0.718l0.032,0.032c0.528-0.519,1.016-0.814,1.597-0.814c0.709,0,1.258,0.54,1.258,1.565c0,1.501-1.311,3.426-2.929,3.426
	c-0.338,0-0.719-0.095-0.974-0.243L137.743,43.814z M141.158,39.065c0-0.719-0.273-1.131-0.866-1.131
	c-0.381,0-0.813,0.221-1.185,0.613l-0.751,2.919c0.126,0.412,0.538,0.623,0.92,0.623C140.397,42.089,141.158,40.472,141.158,39.065"
	/>
<path fill="#FFFFFF" d="M144.733,42.227c-0.148,0.054-0.624,0.181-1.036,0.181c-0.55,0-0.857-0.254-0.857-0.72
	c0-0.137,0.032-0.296,0.086-0.476l0.94-2.982c0.095-0.328-0.106-0.444-0.783-0.487v-0.232l1.915-0.062l-1.164,3.711
	c-0.062,0.211-0.104,0.37-0.104,0.498c0,0.306,0.253,0.412,1.004,0.369V42.227z M145.115,34.866c0.253,0,0.454,0.16,0.454,0.487
	c0,0.423-0.308,0.867-0.698,0.867c-0.243,0-0.455-0.159-0.455-0.497C144.416,35.3,144.724,34.866,145.115,34.866"/>
<path fill="#FFFFFF" d="M149.727,38.061c0,0.433-0.243,0.719-0.593,0.719c-0.306,0-0.528-0.138-0.528-0.486
	c0-0.096,0.042-0.265,0.106-0.36c-0.424,0.063-0.91,0.371-1.429,1.027l-0.814,3.362h-0.984l0.551-1.713l0.645-2.357
	c0.085-0.339-0.01-0.477-0.665-0.52v-0.222l1.713-0.062l-0.307,0.993l0.031,0.032c0.498-0.592,1.059-1.058,1.598-1.058
	C149.493,37.415,149.727,37.722,149.727,38.061"/>
<path fill="#FFFFFF" d="M151.938,42.227c-0.147,0.054-0.625,0.181-1.035,0.181c-0.551,0-0.857-0.254-0.857-0.72
	c0-0.137,0.031-0.296,0.084-0.476l0.942-2.982c0.095-0.328-0.106-0.444-0.783-0.487v-0.232l1.912-0.062l-1.161,3.711
	c-0.064,0.211-0.106,0.37-0.106,0.498c0,0.306,0.255,0.412,1.005,0.369V42.227z M152.316,34.866c0.254,0,0.455,0.16,0.455,0.487
	c0,0.423-0.307,0.867-0.698,0.867c-0.243,0-0.452-0.159-0.452-0.497C151.621,35.3,151.926,34.866,152.316,34.866"/>
<path fill="#FFFFFF" d="M153.883,38.252c0.084-0.339-0.011-0.477-0.667-0.52v-0.222l1.715-0.063l-0.297,0.899l0.032,0.032
	c0.634-0.572,1.374-0.963,1.956-0.963c0.623,0,0.962,0.339,0.962,0.942c0,0.201-0.042,0.434-0.126,0.698l-0.709,2.146
	c-0.073,0.211-0.105,0.38-0.105,0.508c0,0.295,0.243,0.37,0.898,0.348v0.19c-0.104,0.042-0.496,0.159-0.909,0.159
	c-0.539,0-0.847-0.18-0.847-0.623c0-0.118,0.032-0.308,0.097-0.498l0.697-2.115c0.074-0.21,0.105-0.402,0.105-0.571
	c0-0.36-0.19-0.591-0.656-0.591c-0.454,0-0.93,0.274-1.48,0.719l-0.877,3.595h-0.984l0.55-1.713L153.883,38.252z"/>
<path fill="#FFFFFF" d="M158.422,40.577c0-1.363,1.216-3.193,2.708-3.193c0.581,0,0.918,0.285,1.141,0.687l0.2-0.561l0.91-0.116
	l-0.593,1.713l-0.921,3.299c-0.378,1.365-0.991,2.03-2.431,2.03c-1.047,0-1.629-0.475-1.629-0.982c0-0.445,0.286-0.73,0.646-0.73
	c0.316,0,0.507,0.211,0.507,0.54c0,0.211-0.116,0.392-0.316,0.518c0.105,0.212,0.349,0.402,0.804,0.402
	c0.856,0,1.332-0.667,1.691-2.031l0.159-0.582l-0.043-0.01c-0.401,0.486-0.74,0.719-1.332,0.719
	C159.035,42.28,158.422,41.635,158.422,40.577 M159.353,40.662c0,0.761,0.285,1.174,0.878,1.174c0.476,0,0.825-0.265,1.164-0.803
	l0.706-2.379c-0.138-0.572-0.442-1.005-0.919-1.005C159.977,37.648,159.353,39.699,159.353,40.662"/>
<path fill="#FFFFFF" d="M166.27,40.577c0-1.363,1.216-3.193,2.708-3.193c0.582,0,0.92,0.285,1.143,0.687l0.2-0.561l0.91-0.116
	l-0.593,1.713l-0.92,3.299c-0.381,1.365-0.994,2.03-2.433,2.03c-1.048,0-1.629-0.475-1.629-0.982c0-0.445,0.286-0.73,0.646-0.73
	c0.317,0,0.507,0.211,0.507,0.54c0,0.211-0.116,0.392-0.316,0.518c0.105,0.212,0.349,0.402,0.804,0.402
	c0.856,0,1.332-0.667,1.691-2.031l0.159-0.582l-0.043-0.01c-0.401,0.486-0.739,0.719-1.332,0.719
	C166.883,42.28,166.27,41.635,166.27,40.577 M167.201,40.662c0,0.761,0.284,1.174,0.877,1.174c0.477,0,0.825-0.265,1.163-0.803
	l0.71-2.379c-0.139-0.572-0.444-1.005-0.922-1.005C167.824,37.648,167.201,39.699,167.201,40.662"/>
<path fill="#FFFFFF" d="M175.64,38.061c0,0.433-0.243,0.719-0.592,0.719c-0.308,0-0.528-0.138-0.528-0.486
	c0-0.096,0.042-0.265,0.104-0.36c-0.422,0.063-0.908,0.371-1.428,1.027l-0.813,3.362h-0.983l0.549-1.713l0.646-2.357
	c0.084-0.339-0.012-0.477-0.666-0.52v-0.222l1.714-0.062l-0.308,0.993l0.032,0.032c0.497-0.592,1.059-1.058,1.597-1.058
	C175.407,37.415,175.64,37.722,175.64,38.061"/>
<path fill="#FFFFFF" d="M180.158,39.362c0,1.479-1.038,3.056-2.72,3.056c-1.025,0-1.733-0.794-1.733-1.989
	c0-1.49,1.035-3.044,2.718-3.044C179.449,37.384,180.158,38.166,180.158,39.362 M179.28,38.971c0-0.867-0.308-1.323-0.932-1.323
	c-1.227,0-1.776,2.157-1.776,3.172c0,0.879,0.307,1.322,0.931,1.322C178.729,42.142,179.28,39.995,179.28,38.971"/>
<path fill="#FFFFFF" d="M184.282,42.386l-0.054-1.809l-0.127-1.121l-1.829,2.983l-0.667-0.053l-0.053-1.809l-0.264-2.283
	c-0.041-0.403-0.136-0.476-0.781-0.487v-0.222l1.573-0.148l0.297,3.194l0.021,0.898h0.117l0.603-0.974
	c0.508-0.824,0.772-1.353,0.909-1.754l-0.148-1.291l0.89-0.074l0.285,3.194l0.043,0.909h0.116l0.613-0.898
	c0.729-1.005,0.941-1.576,1.058-1.999c-0.307-0.169-0.454-0.37-0.454-0.676c0-0.329,0.242-0.582,0.56-0.582
	c0.382,0,0.593,0.306,0.593,0.667c0,0.475-0.223,0.92-0.994,2.008l-1.661,2.391L184.282,42.386z"/>
<path fill="#FFFFFF" d="M189.984,37.764l-0.931,3.226c-0.053,0.201-0.085,0.38-0.085,0.518c0,0.306,0.17,0.444,0.561,0.444
	c0.232,0,0.572-0.053,0.932-0.159l-0.012,0.19c-0.274,0.158-0.866,0.434-1.385,0.434c-0.688,0-0.995-0.307-0.995-0.825
	c0-0.138,0.032-0.349,0.096-0.55l0.963-3.279h-0.91l0.096-0.295h0.91l0.443-1.502l0.92-0.137l-0.518,1.639h1.257l-0.096,0.295
	H189.984z"/>
<path fill="#FFFFFF" d="M195.155,41.202c-0.074,0.211-0.105,0.38-0.105,0.508c0,0.295,0.243,0.37,0.899,0.348v0.19
	c-0.106,0.042-0.498,0.16-0.91,0.16c-0.54,0-0.847-0.181-0.847-0.624c0-0.117,0.032-0.307,0.096-0.498l0.697-2.114
	c0.074-0.212,0.106-0.403,0.106-0.572c0-0.36-0.19-0.591-0.655-0.591c-0.455,0-0.932,0.274-1.481,0.718l-0.878,3.596h-0.983
	l0.55-1.713l1.259-4.959c0.074-0.317-0.17-0.466-0.888-0.508V34.92l2.041-0.074l-1.017,3.501l0.032,0.031
	c0.635-0.571,1.376-0.961,1.957-0.961c0.624,0,0.962,0.338,0.962,0.941c0,0.201-0.041,0.434-0.126,0.698L195.155,41.202z"/>
<polygon fill="#FFFFFF" points="114.856,44.542 114.166,44.545 126.5,25.255 127.187,25.251 "/>
<path fill="#FFFFFF" d="M16.749,12.726c-0.247,0.207-0.92,0.836-0.92,1.212s0.379,0.878,1.006,1.708l7.971,10.733
	c3.251,4.426,5.086,3.259,5.086,4.303c0,0.291-0.04,0.544-0.538,0.544c-0.92-0.003-2.007-0.17-3.133-0.17
	c-0.793,0-1.63,0.166-2.796,0.166c-0.794,0-1.211-0.086-2.044-1.21l-8.305-11.401c-0.544-0.715-0.794-1.168-1.047-1.168
	c-0.331,0-1.044,0.707-1.959,1.751c-0.624,0.71-0.547,1.085-0.547,2.049v5.466c0,3.843,4.091,2.504,4.091,4.013
	c0,0.373-0.17,0.494-1.168,0.494c-1.128,0-2.255-0.165-4.632-0.168c-2.009,0-4.177,0.168-5.472,0.164
	c-0.792,0-1.294-0.037-1.294-0.329c0-2.09,3.34,0.621,3.34-5.682L4.396,7.045c0-5.051-4.386-2.925-4.386-4.765
	c0-0.453,0.338-0.626,0.84-0.626c0.792,0,2.168,0.173,5.007,0.173c2.339,0,4.968-0.166,5.803-0.166c0.376,0,0.879,0,0.879,0.5
	c-0.002,1.674-3.01-0.578-3.01,4.005L9.526,15.73c0,0.418-0.042,1.003,0.21,0.963c0.248,0.041,0.499-0.167,1.044-0.712l5.51-5.385
	C17.458,9.43,21.51,6.05,21.51,4.168c0-1.289-2.543-0.751-2.543-1.713c0-0.752,0.415-0.792,0.961-0.792
	c0.416,0,3.297,0.17,4.547,0.17c1.049,0,2.13-0.168,3.923-0.164c0.334,0,1.088-0.044,1.088,0.706c0,1.125-1.334-0.125-5.385,3.545
	L16.749,12.726z"/>
<path fill="#FFFFFF" d="M33.123,20.713c-0.751,0-0.917-0.295-0.917,1.039c-0.003,3.591,2.547,6.851,6.176,6.851
	c2.459,0,4.508-2.214,5.18-2.214c0.166,0,0.415,0.045,0.415,0.501c-0.002,1.045-3.508,4.341-7.807,4.341
	c-4.136-0.001-8.227-2.628-8.224-8.348c0-4.804,2.716-10.022,8.104-10.019c5.59,0,7.844,4.762,7.844,6.931
	c0,0.918-0.247,0.918-0.503,0.918H33.123z M38.427,19.255c0.709,0,0.958,0.036,0.958-1.133c0-1.581-1.166-4.047-3.798-4.047
	c-2.508,0-3.423,2.462-3.423,4.383c0,0.667,0.084,0.791,0.208,0.791L38.427,19.255z"/>
<path fill="#FFFFFF" d="M45.531,5.469c0-2.463-2.758-1.126-2.758-2.338c0-0.713,0.627-0.544,3.3-1.462
	c3.213-0.916,3.092-1.667,3.8-1.667c0.544,0,0.084,1.166,0.084,3.505l-0.009,23.926c0,2.962,3.087,2.375,3.087,3.299
	c0,0.412-0.165,0.539-0.875,0.539c-0.833,0-3.428-0.169-4.677-0.169c-0.961,0-2.839,0.169-3.713,0.169c-0.337,0-0.713,0-0.713-0.42
	c0-1.295,2.466,0.375,2.466-3.549L45.531,5.469z"/>
<path fill="#FFFFFF" d="M54.481,5.471c0.001-2.464-2.757-1.129-2.757-2.335c0-0.714,0.631-0.544,3.298-1.465
	c3.22-0.915,3.092-1.666,3.802-1.662c0.543,0,0.083,1.164,0.083,3.499l-0.007,23.926c0,2.963,3.086,2.378,3.086,3.302
	c0,0.416-0.165,0.539-0.878,0.539c-0.833,0-3.421-0.167-4.676-0.168c-0.955,0-2.836,0.166-3.712,0.166c-0.334,0-0.71,0-0.71-0.419
	c0-1.293,2.458,0.375,2.464-3.547L54.481,5.471z"/>
<path fill="#FFFFFF" d="M69.282,31.244c-5.05-0.006-8.976-3.512-8.973-8.644c0.003-5.47,3.886-9.725,9.479-9.725
	c5.221,0.003,9.228,3.471,9.228,8.728C79.016,27.279,75.045,31.248,69.282,31.244 M64.737,20.218
	c-0.13,2.757,1.208,9.56,5.841,9.565c3.258,0,4.215-2.418,4.215-5.258c0.007-3.34-1.204-10.312-5.711-10.312
	C65.445,14.212,64.862,17.213,64.737,20.218"/>
<path fill="#FFFFFF" d="M79.947,35.589c0-2.505,2.712-3.257,3.128-3.257c-0.416-0.371-1.795-1.296-1.792-3.844
	c0-1.709,0.751-2.964,2.213-4.006c-2.252-1.419-3.418-2.505-3.418-5.301c0-4.01,3.341-6.304,7.478-6.301
	c2.875,0,4.503,1.46,5.883,1.46c2.46,0.003,2.379-2.627,3.003-2.627c0.375,0,0.459,0.374,0.459,1.126
	c0,3.965-1.173,4.051-1.836,4.465c0.042,0.711,0,0.167,0.042,1.254c0.084,2.631-1.506,6.556-7.725,6.549
	c-0.63,0-1.291-0.077-2.128-0.077c-1.253-0.009-1.757,0.832-1.757,1.833c0,1.625,0.25,1.834,6.345,1.837
	c5.845,0.004,7.057,1.757,7.055,4.301c0,2.463-1.715,4.386-3.881,5.22c-2.469,0.961-3.803,1.043-6.437,1.041
	C84.911,39.264,79.946,38.886,79.947,35.589 M84.999,32.711c-1.128,0-1.667,1.083-1.674,2.084c0,2.757,2.755,3.217,4.675,3.217
	c2.174,0,5.638-0.458,5.638-3.292C93.638,32.795,92.176,32.711,84.999,32.711 M87.383,14.087c-0.751,0-3.255,0.339-3.258,4.888
	c0,2.087,0.877,5.011,3.427,5.011c2.667,0.002,3.421-2.422,3.421-4.678C90.973,16.968,90.182,14.089,87.383,14.087"/>
<path fill="#FFFFFF" d="M97.495,35.59c0-2.503,2.714-3.254,3.13-3.254c-0.416-0.372-1.792-1.291-1.792-3.837
	c0-1.72,0.754-2.97,2.216-4.008c-2.254-1.421-3.424-2.509-3.424-5.307c0.002-4.001,3.341-6.301,7.473-6.301
	c2.887,0.004,4.511,1.464,5.888,1.464c2.461,0.002,2.382-2.626,3.007-2.625c0.379,0,0.461,0.377,0.461,1.123
	c-0.005,3.968-1.171,4.05-1.838,4.465c0.04,0.713,0,0.168,0.04,1.257c0.081,2.633-1.507,6.551-7.725,6.551
	c-0.624,0-1.297-0.083-2.129-0.083c-1.25-0.003-1.758,0.833-1.758,1.834c0,1.631,0.251,1.839,6.344,1.841
	c5.848,0,7.059,1.753,7.059,4.299c-0.002,2.466-1.715,4.384-3.885,5.219c-2.463,0.96-3.798,1.043-6.429,1.039
	C102.464,39.267,97.495,38.893,97.495,35.59 M102.552,32.714c-1.134,0-1.672,1.084-1.672,2.086c0,2.754,2.749,3.219,4.672,3.219
	c2.17,0.002,5.638-0.458,5.641-3.297C111.192,32.798,109.731,32.717,102.552,32.714 M104.935,14.097
	c-0.753-0.002-3.255,0.335-3.259,4.884c0,2.086,0.878,5.007,3.421,5.008c2.674,0,3.426-2.423,3.428-4.67
	C108.524,16.979,107.729,14.097,104.935,14.097"/>
<path fill="#FFFFFF" d="M0.915,37.646l0.33-0.391c0.491,0.445,0.962,0.667,1.613,0.667c0.633,0,1.05-0.336,1.05-0.8v-0.014
	c0-0.438-0.235-0.686-1.225-0.895c-1.082-0.235-1.579-0.585-1.579-1.359V34.84c0-0.74,0.653-1.284,1.546-1.284
	c0.686,0,1.178,0.195,1.655,0.578l-0.309,0.41c-0.437-0.356-0.875-0.511-1.359-0.511c-0.612,0-1.001,0.336-1.001,0.759v0.014
	c0,0.444,0.242,0.693,1.277,0.915c1.05,0.229,1.534,0.613,1.534,1.333v0.013c0,0.808-0.672,1.331-1.607,1.331
	C2.092,38.399,1.48,38.151,0.915,37.646"/>
<path fill="#FFFFFF" d="M5.228,36.609v-0.012c0-0.983,0.768-1.817,1.783-1.817c0.659,0,1.069,0.276,1.392,0.619L8.06,35.763
	c-0.275-0.29-0.585-0.525-1.055-0.525c-0.707,0-1.245,0.599-1.245,1.346v0.014c0,0.752,0.551,1.352,1.279,1.352
	c0.443,0,0.786-0.221,1.061-0.518l0.331,0.31c-0.35,0.39-0.768,0.673-1.419,0.673C5.996,38.414,5.228,37.585,5.228,36.609"/>
<path fill="#FFFFFF" d="M9.287,33.422h0.517v2.038c0.229-0.377,0.592-0.68,1.191-0.68c0.842,0,1.331,0.565,1.331,1.393v2.159h-0.517
	V36.3c0-0.646-0.349-1.05-0.961-1.05c-0.6,0-1.043,0.438-1.043,1.09v1.992H9.287V33.422z"/>
<path fill="#FFFFFF" d="M13.216,36.609v-0.012c0-0.983,0.768-1.817,1.816-1.817c1.044,0,1.812,0.821,1.812,1.804v0.014
	c0,0.982-0.774,1.816-1.824,1.816C13.976,38.414,13.216,37.592,13.216,36.609 M16.311,36.609v-0.012c0-0.748-0.559-1.36-1.291-1.36
	c-0.754,0-1.272,0.612-1.272,1.346v0.014c0,0.746,0.552,1.352,1.285,1.352C15.787,37.949,16.311,37.343,16.311,36.609"/>
<path fill="#FFFFFF" d="M17.564,36.609v-0.012c0-0.983,0.766-1.817,1.816-1.817c1.043,0,1.811,0.821,1.811,1.804v0.014
	c0,0.982-0.774,1.816-1.824,1.816C18.324,38.414,17.564,37.592,17.564,36.609 M20.659,36.609v-0.012c0-0.748-0.559-1.36-1.292-1.36
	c-0.753,0-1.271,0.612-1.271,1.346v0.014c0,0.746,0.551,1.352,1.285,1.352C20.134,37.949,20.659,37.343,20.659,36.609"/>
<rect x="22.174" y="33.422" fill="#FFFFFF" width="0.517" height="4.91"/>
<path fill="#FFFFFF" d="M25.701,36.609v-0.012c0-0.983,0.767-1.817,1.815-1.817c1.043,0,1.811,0.821,1.811,1.804v0.014
	c0,0.982-0.774,1.816-1.824,1.816C26.461,38.414,25.701,37.592,25.701,36.609 M28.795,36.609v-0.012c0-0.748-0.559-1.36-1.292-1.36
	c-0.752,0-1.271,0.612-1.271,1.346v0.014c0,0.746,0.551,1.352,1.284,1.352C28.271,37.949,28.795,37.343,28.795,36.609"/>
<path fill="#FFFFFF" d="M30.459,35.312H29.98V34.86h0.479v-0.302c0-0.396,0.107-0.699,0.303-0.894
	c0.175-0.175,0.431-0.269,0.747-0.269c0.242,0,0.403,0.027,0.571,0.087v0.45c-0.188-0.053-0.329-0.087-0.504-0.087
	c-0.404,0-0.605,0.242-0.605,0.739v0.283h1.102v0.444h-1.095v3.021h-0.518V35.312z"/>
<polygon fill="#FFFFFF" points="34.839,33.624 35.378,33.624 37.093,36.192 38.809,33.624 39.346,33.624 39.346,38.332 
	38.815,38.332 38.815,34.518 37.1,37.041 37.072,37.041 35.358,34.525 35.358,38.332 34.839,38.332 "/>
<path fill="#FFFFFF" d="M40.332,37.322V37.31c0-0.733,0.605-1.124,1.486-1.124c0.444,0,0.76,0.061,1.069,0.148v-0.122
	c0-0.625-0.383-0.948-1.036-0.948c-0.409,0-0.732,0.107-1.056,0.254l-0.154-0.423c0.384-0.175,0.76-0.29,1.264-0.29
	c0.491,0,0.869,0.127,1.124,0.383c0.235,0.236,0.356,0.573,0.356,1.016v2.126h-0.499v-0.524c-0.242,0.316-0.646,0.599-1.257,0.599
	C40.985,38.406,40.332,38.037,40.332,37.322 M42.895,37.055v-0.337c-0.256-0.074-0.599-0.148-1.022-0.148
	c-0.652,0-1.016,0.283-1.016,0.72v0.013c0,0.438,0.404,0.692,0.875,0.692C42.37,37.995,42.895,37.606,42.895,37.055"/>
<path fill="#FFFFFF" d="M44.49,34.854h0.518v0.605c0.229-0.377,0.592-0.68,1.191-0.68c0.841,0,1.332,0.564,1.332,1.393v2.159h-0.519
	V36.3c0-0.646-0.349-1.05-0.96-1.05c-0.6,0-1.044,0.438-1.044,1.09v1.992H44.49V34.854z"/>
<path fill="#FFFFFF" d="M48.374,37.322V37.31c0-0.733,0.606-1.124,1.487-1.124c0.444,0,0.761,0.061,1.07,0.148v-0.122
	c0-0.625-0.383-0.948-1.037-0.948c-0.41,0-0.733,0.107-1.056,0.254l-0.154-0.423c0.383-0.175,0.76-0.29,1.265-0.29
	c0.491,0,0.867,0.127,1.123,0.383c0.236,0.236,0.356,0.573,0.356,1.016v2.126h-0.497v-0.524c-0.242,0.316-0.646,0.599-1.258,0.599
	C49.026,38.406,48.374,38.037,48.374,37.322 M50.938,37.055v-0.337c-0.256-0.074-0.599-0.148-1.023-0.148
	c-0.653,0-1.016,0.283-1.016,0.72v0.013c0,0.438,0.403,0.692,0.875,0.692C50.412,37.995,50.938,37.606,50.938,37.055"/>
<path fill="#FFFFFF" d="M52.492,38.938l0.235-0.404c0.396,0.29,0.841,0.444,1.339,0.444c0.766,0,1.265-0.423,1.265-1.237V37.33
	c-0.303,0.404-0.728,0.733-1.366,0.733c-0.834,0-1.635-0.625-1.635-1.627v-0.014c0-1.017,0.808-1.642,1.635-1.642
	c0.652,0,1.077,0.323,1.359,0.7v-0.625h0.518v2.874c0,0.538-0.161,0.948-0.444,1.23c-0.31,0.31-0.774,0.464-1.325,0.464
	C53.495,39.421,52.956,39.26,52.492,38.938 M55.345,36.428v-0.014c0-0.713-0.619-1.177-1.278-1.177c-0.66,0-1.205,0.458-1.205,1.171
	v0.013c0,0.7,0.559,1.184,1.205,1.184C54.726,37.606,55.345,37.128,55.345,36.428"/>
<path fill="#FFFFFF" d="M56.787,36.604V36.59c0-1.002,0.706-1.81,1.668-1.81c1.029,0,1.621,0.821,1.621,1.837
	c0,0.067,0,0.108-0.006,0.168h-2.758c0.074,0.754,0.605,1.178,1.224,1.178c0.478,0,0.814-0.195,1.097-0.492l0.322,0.29
	c-0.349,0.391-0.773,0.653-1.433,0.653C57.566,38.414,56.787,37.68,56.787,36.604 M59.552,36.401
	c-0.055-0.633-0.418-1.185-1.11-1.185c-0.606,0-1.063,0.505-1.13,1.185H59.552z"/>
<path fill="#FFFFFF" d="M60.986,34.854h0.518v0.586c0.229-0.344,0.539-0.66,1.124-0.66c0.564,0,0.928,0.303,1.116,0.692
	c0.249-0.383,0.619-0.692,1.225-0.692c0.8,0,1.291,0.538,1.291,1.399v2.153h-0.518V36.3c0-0.673-0.337-1.05-0.901-1.05
	c-0.525,0-0.956,0.391-0.956,1.077v2.005h-0.517v-2.045c0-0.653-0.343-1.037-0.896-1.037c-0.551,0-0.968,0.458-0.968,1.097v1.984
	h-0.518V34.854z"/>
<path fill="#FFFFFF" d="M67.17,36.604V36.59c0-1.002,0.707-1.81,1.669-1.81c1.029,0,1.621,0.821,1.621,1.837
	c0,0.067,0,0.108-0.006,0.168h-2.758c0.073,0.754,0.604,1.178,1.224,1.178c0.478,0,0.813-0.195,1.097-0.492l0.323,0.29
	c-0.35,0.391-0.774,0.653-1.434,0.653C67.951,38.414,67.17,37.68,67.17,36.604 M69.936,36.401c-0.055-0.633-0.417-1.185-1.11-1.185
	c-0.606,0-1.063,0.505-1.13,1.185H69.936z"/>
<path fill="#FFFFFF" d="M71.369,34.854h0.519v0.605c0.229-0.377,0.592-0.68,1.191-0.68c0.84,0,1.332,0.564,1.332,1.393v2.159h-0.517
	V36.3c0-0.646-0.351-1.05-0.963-1.05c-0.599,0-1.042,0.438-1.042,1.09v1.992h-0.519V34.854z"/>
<path fill="#FFFFFF" d="M75.697,37.411v-2.1h-0.484v-0.458h0.484v-1.049h0.518v1.049h1.103v0.458h-1.103v2.031
	c0,0.425,0.236,0.579,0.585,0.579c0.175,0,0.323-0.034,0.505-0.122v0.444c-0.182,0.095-0.377,0.148-0.625,0.148
	C76.121,38.393,75.697,38.118,75.697,37.411"/>
</svg>
